<mxfile host="app.diagrams.net" modified="2024-04-23T22:48:25.997Z" agent="Mozilla/5.0 (Windows NT 10.0; Win64; x64; rv:124.0) Gecko/20100101 Firefox/124.0" etag="8CQn6Yg1ORxi8sCe2xY5" version="23.1.2" type="github">
  <diagram name="Page-1" id="8NvPQaUA2LeN-9Mw2jtS">
    <mxGraphModel dx="880" dy="462" grid="1" gridSize="10" guides="1" tooltips="1" connect="1" arrows="1" fold="1" page="1" pageScale="1" pageWidth="850" pageHeight="1100" math="0" shadow="0">
      <root>
        <mxCell id="0" />
        <mxCell id="1" parent="0" />
        <mxCell id="fvf-YZT3rPCSHSFREFn0-2" value="User" style="swimlane;fontStyle=1;align=center;verticalAlign=top;childLayout=stackLayout;horizontal=1;startSize=30;horizontalStack=0;resizeParent=1;resizeParentMax=0;resizeLast=0;collapsible=1;marginBottom=0;whiteSpace=wrap;html=1;" parent="1" vertex="1">
          <mxGeometry x="30" y="60" width="170" height="190" as="geometry" />
        </mxCell>
        <mxCell id="fvf-YZT3rPCSHSFREFn0-3" value="&lt;div&gt;-UserID:&lt;/div&gt;&lt;div&gt;-Username:&lt;/div&gt;&lt;div&gt;-Email:&lt;/div&gt;&lt;div&gt;-Password:&lt;br&gt;&lt;/div&gt;" style="text;strokeColor=none;fillColor=none;align=left;verticalAlign=top;spacingLeft=4;spacingRight=4;overflow=hidden;rotatable=0;points=[[0,0.5],[1,0.5]];portConstraint=eastwest;whiteSpace=wrap;html=1;" parent="fvf-YZT3rPCSHSFREFn0-2" vertex="1">
          <mxGeometry y="30" width="170" height="70" as="geometry" />
        </mxCell>
        <mxCell id="fvf-YZT3rPCSHSFREFn0-4" value="" style="line;strokeWidth=1;fillColor=none;align=left;verticalAlign=middle;spacingTop=-1;spacingLeft=3;spacingRight=3;rotatable=0;labelPosition=right;points=[];portConstraint=eastwest;strokeColor=inherit;" parent="fvf-YZT3rPCSHSFREFn0-2" vertex="1">
          <mxGeometry y="100" width="170" height="8" as="geometry" />
        </mxCell>
        <mxCell id="fvf-YZT3rPCSHSFREFn0-5" value="- register()&lt;br&gt;-provide feedback ()&lt;br&gt;-create profile ()" style="text;strokeColor=none;fillColor=none;align=left;verticalAlign=top;spacingLeft=4;spacingRight=4;overflow=hidden;rotatable=0;points=[[0,0.5],[1,0.5]];portConstraint=eastwest;whiteSpace=wrap;html=1;" parent="fvf-YZT3rPCSHSFREFn0-2" vertex="1">
          <mxGeometry y="108" width="170" height="82" as="geometry" />
        </mxCell>
        <mxCell id="fvf-YZT3rPCSHSFREFn0-6" value="Model params" style="swimlane;fontStyle=1;align=center;verticalAlign=top;childLayout=stackLayout;horizontal=1;startSize=26;horizontalStack=0;resizeParent=1;resizeParentMax=0;resizeLast=0;collapsible=1;marginBottom=0;whiteSpace=wrap;html=1;" parent="1" vertex="1">
          <mxGeometry x="620" y="680" width="170" height="170" as="geometry" />
        </mxCell>
        <mxCell id="fvf-YZT3rPCSHSFREFn0-7" value="&lt;div&gt;-ModelID:&lt;/div&gt;&lt;div&gt;-ParameterName:&lt;/div&gt;&lt;div&gt;-ParameterValue:&lt;br&gt;&lt;/div&gt;" style="text;strokeColor=none;fillColor=none;align=left;verticalAlign=top;spacingLeft=4;spacingRight=4;overflow=hidden;rotatable=0;points=[[0,0.5],[1,0.5]];portConstraint=eastwest;whiteSpace=wrap;html=1;" parent="fvf-YZT3rPCSHSFREFn0-6" vertex="1">
          <mxGeometry y="26" width="170" height="64" as="geometry" />
        </mxCell>
        <mxCell id="fvf-YZT3rPCSHSFREFn0-8" value="" style="line;strokeWidth=1;fillColor=none;align=left;verticalAlign=middle;spacingTop=-1;spacingLeft=3;spacingRight=3;rotatable=0;labelPosition=right;points=[];portConstraint=eastwest;strokeColor=inherit;" parent="fvf-YZT3rPCSHSFREFn0-6" vertex="1">
          <mxGeometry y="90" width="170" height="8" as="geometry" />
        </mxCell>
        <mxCell id="fvf-YZT3rPCSHSFREFn0-9" value="&lt;div&gt;-getParameterName():&lt;/div&gt;&lt;div&gt;&lt;br&gt;&lt;/div&gt;" style="text;strokeColor=none;fillColor=none;align=left;verticalAlign=top;spacingLeft=4;spacingRight=4;overflow=hidden;rotatable=0;points=[[0,0.5],[1,0.5]];portConstraint=eastwest;whiteSpace=wrap;html=1;" parent="fvf-YZT3rPCSHSFREFn0-6" vertex="1">
          <mxGeometry y="98" width="170" height="72" as="geometry" />
        </mxCell>
        <mxCell id="fvf-YZT3rPCSHSFREFn0-10" value="Smart Watch" style="swimlane;fontStyle=1;align=center;verticalAlign=top;childLayout=stackLayout;horizontal=1;startSize=26;horizontalStack=0;resizeParent=1;resizeParentMax=0;resizeLast=0;collapsible=1;marginBottom=0;whiteSpace=wrap;html=1;" parent="1" vertex="1">
          <mxGeometry x="330" y="50" width="170" height="190" as="geometry" />
        </mxCell>
        <mxCell id="fvf-YZT3rPCSHSFREFn0-11" value="&lt;div&gt;-WatchID&lt;/div&gt;&lt;div&gt;-UserID&lt;/div&gt;&lt;div&gt;-Model&lt;br&gt;&lt;/div&gt;" style="text;strokeColor=none;fillColor=none;align=left;verticalAlign=top;spacingLeft=4;spacingRight=4;overflow=hidden;rotatable=0;points=[[0,0.5],[1,0.5]];portConstraint=eastwest;whiteSpace=wrap;html=1;" parent="fvf-YZT3rPCSHSFREFn0-10" vertex="1">
          <mxGeometry y="26" width="170" height="84" as="geometry" />
        </mxCell>
        <mxCell id="fvf-YZT3rPCSHSFREFn0-12" value="" style="line;strokeWidth=1;fillColor=none;align=left;verticalAlign=middle;spacingTop=-1;spacingLeft=3;spacingRight=3;rotatable=0;labelPosition=right;points=[];portConstraint=eastwest;strokeColor=inherit;" parent="fvf-YZT3rPCSHSFREFn0-10" vertex="1">
          <mxGeometry y="110" width="170" height="8" as="geometry" />
        </mxCell>
        <mxCell id="fvf-YZT3rPCSHSFREFn0-13" value="&lt;div&gt;-record data ():&lt;/div&gt;&lt;div&gt;&lt;br&gt;&lt;/div&gt;" style="text;strokeColor=none;fillColor=none;align=left;verticalAlign=top;spacingLeft=4;spacingRight=4;overflow=hidden;rotatable=0;points=[[0,0.5],[1,0.5]];portConstraint=eastwest;whiteSpace=wrap;html=1;" parent="fvf-YZT3rPCSHSFREFn0-10" vertex="1">
          <mxGeometry y="118" width="170" height="72" as="geometry" />
        </mxCell>
        <mxCell id="fvf-YZT3rPCSHSFREFn0-14" value="Correction" style="swimlane;fontStyle=1;align=center;verticalAlign=top;childLayout=stackLayout;horizontal=1;startSize=26;horizontalStack=0;resizeParent=1;resizeParentMax=0;resizeLast=0;collapsible=1;marginBottom=0;whiteSpace=wrap;html=1;" parent="1" vertex="1">
          <mxGeometry x="620" y="150" width="190" height="190" as="geometry" />
        </mxCell>
        <mxCell id="fvf-YZT3rPCSHSFREFn0-15" value="&lt;div&gt;-CorrectionID:&lt;/div&gt;&lt;div&gt;-DataID:&lt;/div&gt;&lt;div&gt;-UserID:&lt;/div&gt;&lt;div&gt;-CorrectionValue:&lt;br&gt;&lt;/div&gt;" style="text;strokeColor=none;fillColor=none;align=left;verticalAlign=top;spacingLeft=4;spacingRight=4;overflow=hidden;rotatable=0;points=[[0,0.5],[1,0.5]];portConstraint=eastwest;whiteSpace=wrap;html=1;" parent="fvf-YZT3rPCSHSFREFn0-14" vertex="1">
          <mxGeometry y="26" width="190" height="84" as="geometry" />
        </mxCell>
        <mxCell id="fvf-YZT3rPCSHSFREFn0-16" value="" style="line;strokeWidth=1;fillColor=none;align=left;verticalAlign=middle;spacingTop=-1;spacingLeft=3;spacingRight=3;rotatable=0;labelPosition=right;points=[];portConstraint=eastwest;strokeColor=inherit;" parent="fvf-YZT3rPCSHSFREFn0-14" vertex="1">
          <mxGeometry y="110" width="190" height="8" as="geometry" />
        </mxCell>
        <mxCell id="fvf-YZT3rPCSHSFREFn0-17" value="-create ():&lt;br&gt;-destroy ():" style="text;strokeColor=none;fillColor=none;align=left;verticalAlign=top;spacingLeft=4;spacingRight=4;overflow=hidden;rotatable=0;points=[[0,0.5],[1,0.5]];portConstraint=eastwest;whiteSpace=wrap;html=1;" parent="fvf-YZT3rPCSHSFREFn0-14" vertex="1">
          <mxGeometry y="118" width="190" height="72" as="geometry" />
        </mxCell>
        <mxCell id="fvf-YZT3rPCSHSFREFn0-18" value="ML Model" style="swimlane;fontStyle=1;align=center;verticalAlign=top;childLayout=stackLayout;horizontal=1;startSize=26;horizontalStack=0;resizeParent=1;resizeParentMax=0;resizeLast=0;collapsible=1;marginBottom=0;whiteSpace=wrap;html=1;" parent="1" vertex="1">
          <mxGeometry x="250" y="680" width="190" height="180" as="geometry" />
        </mxCell>
        <mxCell id="fvf-YZT3rPCSHSFREFn0-19" value="&lt;div&gt;-ModelID:&lt;/div&gt;&lt;div&gt;-Name:&lt;/div&gt;&lt;div&gt;-Type:&lt;br&gt;&lt;/div&gt;" style="text;strokeColor=none;fillColor=none;align=left;verticalAlign=top;spacingLeft=4;spacingRight=4;overflow=hidden;rotatable=0;points=[[0,0.5],[1,0.5]];portConstraint=eastwest;whiteSpace=wrap;html=1;" parent="fvf-YZT3rPCSHSFREFn0-18" vertex="1">
          <mxGeometry y="26" width="190" height="74" as="geometry" />
        </mxCell>
        <mxCell id="fvf-YZT3rPCSHSFREFn0-20" value="" style="line;strokeWidth=1;fillColor=none;align=left;verticalAlign=middle;spacingTop=-1;spacingLeft=3;spacingRight=3;rotatable=0;labelPosition=right;points=[];portConstraint=eastwest;strokeColor=inherit;" parent="fvf-YZT3rPCSHSFREFn0-18" vertex="1">
          <mxGeometry y="100" width="190" height="8" as="geometry" />
        </mxCell>
        <mxCell id="fvf-YZT3rPCSHSFREFn0-21" value="&lt;div&gt;-getModelID():&lt;/div&gt;&lt;div&gt;-receive input():&lt;/div&gt;&lt;div&gt;-recommendation():&lt;br&gt;&lt;/div&gt;&lt;div&gt;&lt;br&gt;&lt;/div&gt;" style="text;strokeColor=none;fillColor=none;align=left;verticalAlign=top;spacingLeft=4;spacingRight=4;overflow=hidden;rotatable=0;points=[[0,0.5],[1,0.5]];portConstraint=eastwest;whiteSpace=wrap;html=1;" parent="fvf-YZT3rPCSHSFREFn0-18" vertex="1">
          <mxGeometry y="108" width="190" height="72" as="geometry" />
        </mxCell>
        <mxCell id="fvf-YZT3rPCSHSFREFn0-22" value="Data" style="swimlane;fontStyle=1;align=center;verticalAlign=top;childLayout=stackLayout;horizontal=1;startSize=26;horizontalStack=0;resizeParent=1;resizeParentMax=0;resizeLast=0;collapsible=1;marginBottom=0;whiteSpace=wrap;html=1;" parent="1" vertex="1">
          <mxGeometry x="320" y="350" width="190" height="210" as="geometry" />
        </mxCell>
        <mxCell id="fvf-YZT3rPCSHSFREFn0-23" value="&lt;div&gt;-DataID:&lt;/div&gt;&lt;div&gt;-UserID:&lt;/div&gt;&lt;div&gt;-WatchID:&lt;/div&gt;&lt;div&gt;-SensorData:&lt;br&gt;&lt;/div&gt;" style="text;strokeColor=none;fillColor=none;align=left;verticalAlign=top;spacingLeft=4;spacingRight=4;overflow=hidden;rotatable=0;points=[[0,0.5],[1,0.5]];portConstraint=eastwest;whiteSpace=wrap;html=1;" parent="fvf-YZT3rPCSHSFREFn0-22" vertex="1">
          <mxGeometry y="26" width="190" height="84" as="geometry" />
        </mxCell>
        <mxCell id="fvf-YZT3rPCSHSFREFn0-24" value="" style="line;strokeWidth=1;fillColor=none;align=left;verticalAlign=middle;spacingTop=-1;spacingLeft=3;spacingRight=3;rotatable=0;labelPosition=right;points=[];portConstraint=eastwest;strokeColor=inherit;" parent="fvf-YZT3rPCSHSFREFn0-22" vertex="1">
          <mxGeometry y="110" width="190" height="8" as="geometry" />
        </mxCell>
        <mxCell id="fvf-YZT3rPCSHSFREFn0-25" value="-mapping output ():" style="text;strokeColor=none;fillColor=none;align=left;verticalAlign=top;spacingLeft=4;spacingRight=4;overflow=hidden;rotatable=0;points=[[0,0.5],[1,0.5]];portConstraint=eastwest;whiteSpace=wrap;html=1;" parent="fvf-YZT3rPCSHSFREFn0-22" vertex="1">
          <mxGeometry y="118" width="190" height="92" as="geometry" />
        </mxCell>
        <mxCell id="fvf-YZT3rPCSHSFREFn0-30" value="" style="endArrow=none;html=1;rounded=0;exitX=1;exitY=0.714;exitDx=0;exitDy=0;exitPerimeter=0;" parent="1" source="fvf-YZT3rPCSHSFREFn0-3" edge="1">
          <mxGeometry relative="1" as="geometry">
            <mxPoint x="210" y="140" as="sourcePoint" />
            <mxPoint x="330" y="140" as="targetPoint" />
          </mxGeometry>
        </mxCell>
        <mxCell id="fvf-YZT3rPCSHSFREFn0-31" value="" style="endArrow=none;html=1;rounded=0;exitX=0.426;exitY=0;exitDx=0;exitDy=0;exitPerimeter=0;" parent="1" source="fvf-YZT3rPCSHSFREFn0-22" edge="1">
          <mxGeometry relative="1" as="geometry">
            <mxPoint x="350" y="190" as="sourcePoint" />
            <mxPoint x="400" y="240" as="targetPoint" />
          </mxGeometry>
        </mxCell>
        <mxCell id="fvf-YZT3rPCSHSFREFn0-41" value="" style="endArrow=block;dashed=1;endFill=0;endSize=12;html=1;rounded=0;entryX=0.684;entryY=1;entryDx=0;entryDy=0;entryPerimeter=0;" parent="1" target="fvf-YZT3rPCSHSFREFn0-17" edge="1">
          <mxGeometry width="160" relative="1" as="geometry">
            <mxPoint x="510" y="420" as="sourcePoint" />
            <mxPoint x="670" y="420" as="targetPoint" />
            <Array as="points">
              <mxPoint x="750" y="420" />
            </Array>
          </mxGeometry>
        </mxCell>
        <mxCell id="fvf-YZT3rPCSHSFREFn0-44" value="" style="endArrow=none;html=1;rounded=0;exitX=0.789;exitY=0.006;exitDx=0;exitDy=0;exitPerimeter=0;" parent="1" source="fvf-YZT3rPCSHSFREFn0-18" edge="1">
          <mxGeometry width="50" height="50" relative="1" as="geometry">
            <mxPoint x="410" y="730" as="sourcePoint" />
            <mxPoint x="400" y="560" as="targetPoint" />
          </mxGeometry>
        </mxCell>
        <mxCell id="fvf-YZT3rPCSHSFREFn0-45" value="" style="endArrow=none;html=1;rounded=0;exitX=1;exitY=0.5;exitDx=0;exitDy=0;entryX=0;entryY=0.625;entryDx=0;entryDy=0;entryPerimeter=0;" parent="1" source="fvf-YZT3rPCSHSFREFn0-19" target="fvf-YZT3rPCSHSFREFn0-7" edge="1">
          <mxGeometry width="50" height="50" relative="1" as="geometry">
            <mxPoint x="410" y="730" as="sourcePoint" />
            <mxPoint x="460" y="680" as="targetPoint" />
          </mxGeometry>
        </mxCell>
      </root>
    </mxGraphModel>
  </diagram>
</mxfile>
